FFmpeg version SVN-r25716, Copyright (c) 2000-2010 the FFmpeg developers  built on Nov 10 2010 12:23:18 with gcc 4.1.2 20080704 (Red Hat 4.1.2-48)  configuration: --enable-libmp3lame --enable-shared --disable-mmx --arch=x86_64  libavutil     50.33. 0 / 50.33. 0  libavcore      0.12. 1 /  0.12. 1  libavcodec    52.94. 4 / 52.94. 4  libavformat   52.84. 0 / 52.84. 0  libavdevice   52. 2. 2 / 52. 2. 2  libavfilter    1.59. 0 /  1.59. 0  libswscale     0.12. 0 /  0.12. 0Input #0, avi, from '/RAID10/data/converted_video_files/44512.avi':  Duration: 00:00:08.57, start: 0.000000, bitrate: 20393 kb/s    Stream #0.0: Video: mjpeg, yuvj420p, 1024x1024 [PAR 1:1 DAR 1:1], 7 tbr, 7 tbn, 7 tbc    Metadata:      title           : ImageJ AVI     [buffer @ 0xf5cdf80] w:1024 h:1024 pixfmt:yuvj420p[ffsink @ 0xf5cc8f0] auto-inserting filter 'auto-inserted scaler 0' between the filter 'src' and the filter 'out'[scale @ 0xf5ccc10] w:1024 h:1024 fmt:yuvj420p -> w:1024 h:1024 fmt:yuv420p flags:0x4Output #0, flv, to '/RAID10/data/converted_video_files/44512.flv':  Metadata:    encoder         : Lavf52.84.0    Stream #0.0: Video: flv, yuv420p, 1024x1024 [PAR 1:1 DAR 1:1], q=2-31, 600 kb/s, 1k tbn, 24 tbc    Metadata:      title           : ImageJ AVI     Stream mapping:  Stream #0.0 -> #0.0Press [q] to stop encodingframe=    6 fps=  0 q=11.5 size=    2058kB time=0.75 bitrate=22475.2kbits/s    frame=   10 fps=  7 q=23.1 size=    2312kB time=1.33 bitrate=14196.8kbits/s    frame=   16 fps=  9 q=24.8 size=    2651kB time=2.17 bitrate=10020.0kbits/s    frame=   23 fps= 10 q=31.0 size=    2907kB time=3.17 bitrate=7522.5kbits/s    frame=   31 fps= 11 q=31.0 size=    3280kB time=4.33 bitrate=6200.1kbits/s    frame=   37 fps= 11 q=31.0 size=    3494kB time=5.17 bitrate=5540.2kbits/s    frame=   44 fps= 11 q=24.8 size=    3876kB time=6.17 bitrate=5149.7kbits/s    frame=   50 fps= 11 q=31.0 size=    4098kB time=7.04 bitrate=4767.6kbits/s    frame=   57 fps= 11 q=31.0 size=    4416kB time=8.04 bitrate=4498.9kbits/s    frame=   60 fps= 11 q=31.0 Lsize=    4522kB time=8.46 bitrate=4379.0kbits/s    video:4521kB audio:0kB global headers:0kB muxing overhead 0.025275%